<?xml version="1.0" encoding="iso-8859-1"?>
<!-- Generator: Adobe Illustrator 19.0.0, SVG Export Plug-In . SVG Version: 6.00 Build 0)  -->
<svg version="1.1" id="Layer_1" xmlns="http://www.w3.org/2000/svg" xmlns:xlink="http://www.w3.org/1999/xlink" x="0px" y="0px"
	 viewBox="0 0 512 512" style="enable-background:new 0 0 512 512;" xml:space="preserve">
<circle style="fill:#8D6A59;" cx="334.71" cy="275.94" r="177.29"/>
<circle style="opacity:0.2;enable-background:new    ;" cx="334.71" cy="275.94" r="177.29"/>
<circle style="opacity:0.1;enable-background:new    ;" cx="340.66" cy="281.89" r="143.31"/>
<circle style="fill:#FFFFFF;" cx="334.71" cy="275.94" r="143.31"/>
<path style="opacity:0.1;enable-background:new    ;" d="M291.588,103.943C214.516,123.205,157.421,192.9,157.421,275.94
	c0,60.799,30.611,114.442,77.255,146.38c77.072-19.262,134.167-88.957,134.167-171.997
	C368.842,189.524,338.232,135.881,291.588,103.943z"/>
<circle style="fill:#8D6A59;" cx="177.29" cy="236.06" r="177.29"/>
<path style="opacity:0.1;enable-background:new    ;" d="M177.29,390.104C92.349,390.104,23.245,321,23.245,236.06
	c0-84.941,69.104-154.044,154.044-154.044s154.044,69.103,154.044,154.044C331.334,321,262.23,390.104,177.29,390.104z
	 M177.29,97.016c-76.67,0-139.044,62.375-139.044,139.044c0,76.67,62.375,139.045,139.044,139.045S316.334,312.73,316.334,236.06
	C316.334,159.391,253.959,97.016,177.29,97.016z"/>
<g>
	<path style="fill:#394049;" d="M111.154,237.148c-4.142,0-7.5-3.358-7.5-7.5c0-3.045-2.477-5.523-5.522-5.523
		c-3.045,0-5.522,2.477-5.522,5.523c0,4.142-3.358,7.5-7.5,7.5s-7.5-3.358-7.5-7.5c0-11.316,9.206-20.523,20.522-20.523
		s20.522,9.206,20.522,20.523C118.654,233.79,115.296,237.148,111.154,237.148z"/>
	<path style="fill:#394049;" d="M269.469,237.148c-4.142,0-7.5-3.358-7.5-7.5c0-3.045-2.477-5.523-5.522-5.523
		c-3.045,0-5.523,2.477-5.523,5.523c0,4.142-3.358,7.5-7.5,7.5s-7.5-3.358-7.5-7.5c0-11.316,9.206-20.523,20.523-20.523
		c11.316,0,20.522,9.206,20.522,20.523C276.969,233.79,273.611,237.148,269.469,237.148z"/>
</g>
<g>
	<path style="fill:#E8A8C2;" d="M109.08,262.995H87.184c-4.142,0-7.5-3.357-7.5-7.5s3.358-7.5,7.5-7.5h21.896
		c4.142,0,7.5,3.357,7.5,7.5S113.222,262.995,109.08,262.995z"/>
	<path style="fill:#E8A8C2;" d="M267.395,262.995h-21.896c-4.142,0-7.5-3.357-7.5-7.5s3.358-7.5,7.5-7.5h21.896
		c4.142,0,7.5,3.357,7.5,7.5S271.538,262.995,267.395,262.995z"/>
</g>
<path style="fill:#394049;" d="M190.073,250.378c-4.841,0-9.292-1.705-12.784-4.546c-3.491,2.841-7.942,4.546-12.784,4.546
	c-11.184,0-20.283-9.099-20.283-20.283c0-4.143,3.358-7.5,7.5-7.5s7.5,3.357,7.5,7.5c0,2.913,2.37,5.283,5.283,5.283
	c2.913,0,5.284-2.37,5.284-5.283c0-4.143,3.358-7.5,7.5-7.5s7.5,3.357,7.5,7.5c0,2.913,2.37,5.283,5.284,5.283
	c2.913,0,5.283-2.37,5.283-5.283c0-4.143,3.358-7.5,7.5-7.5s7.5,3.357,7.5,7.5C210.356,241.279,201.257,250.378,190.073,250.378z"/>
<g style="opacity:0.1;">
	<path d="M177.29,188.933c-7.028,0-14.056-2.427-19.66-7.279c-5.61-4.859-14.071-4.858-19.681-0.001
		c-11.208,9.707-28.112,9.706-39.32,0.001c-5.608-4.858-14.069-4.858-19.68-0.001c-3.132,2.711-7.869,2.372-10.579-0.759
		c-2.712-3.131-2.372-7.867,0.759-10.579c11.208-9.709,28.111-9.709,39.32,0c5.609,4.857,14.07,4.856,19.68-0.001
		c11.209-9.706,28.113-9.707,39.321,0.001c5.609,4.857,14.069,4.856,19.68-0.001c11.208-9.706,28.112-9.707,39.32,0.001
		c5.609,4.857,14.07,4.856,19.68-0.001c11.209-9.707,28.112-9.707,39.32,0.001c3.131,2.712,3.471,7.448,0.759,10.579
		c-2.711,3.131-7.449,3.473-10.579,0.759c-5.609-4.857-14.069-4.858-19.68,0c-11.209,9.706-28.112,9.707-39.32,0.001
		c-5.61-4.859-14.071-4.858-19.681-0.001C191.346,186.506,184.317,188.933,177.29,188.933z"/>
	<path d="M177.29,151.083c-7.029,0.001-14.055-2.426-19.66-7.279c-5.611-4.858-14.073-4.858-19.681,0
		c-11.206,9.707-28.111,9.707-39.319,0c-3.131-2.712-3.472-7.448-0.76-10.58c2.711-3.13,7.447-3.473,10.579-0.76
		c5.61,4.859,14.07,4.859,19.681,0c11.208-9.704,28.111-9.706,39.32,0c5.61,4.859,14.07,4.859,19.681,0
		c11.207-9.704,28.111-9.706,39.32,0c5.61,4.858,14.071,4.859,19.681,0c3.131-2.713,7.867-2.37,10.579,0.76
		c2.712,3.132,2.372,7.868-0.76,10.58c-11.209,9.705-28.112,9.705-39.319,0c-5.611-4.858-14.072-4.858-19.681,0
		C191.346,148.656,184.317,151.082,177.29,151.083z"/>
	<path d="M265.79,309.086c-7.028,0-14.056-2.427-19.66-7.279c-5.61-4.859-14.071-4.859-19.68,0c-11.209,9.705-28.112,9.705-39.32,0
		c-5.61-4.859-14.07-4.859-19.681,0c-11.207,9.705-28.111,9.705-39.32,0c-5.61-4.859-14.07-4.859-19.681,0
		c-11.208,9.704-28.112,9.704-39.32,0c-3.131-2.712-3.471-7.448-0.759-10.58c2.711-3.13,7.447-3.472,10.579-0.76
		c5.61,4.858,14.07,4.859,19.681,0c11.207-9.705,28.112-9.705,39.319,0c5.61,4.857,14.072,4.857,19.681,0
		c11.208-9.705,28.112-9.705,39.319,0c5.61,4.857,14.072,4.857,19.681,0c11.207-9.706,28.111-9.705,39.319,0
		c5.61,4.859,14.07,4.859,19.681,0c3.13-2.711,7.868-2.372,10.579,0.76c2.712,3.132,2.372,7.868-0.759,10.58
		C279.846,306.659,272.818,309.086,265.79,309.086z"/>
	<path d="M206.79,346.935c-7.028,0-14.056-2.427-19.66-7.279c-5.61-4.859-14.071-4.858-19.68-0.001
		c-11.208,9.707-28.112,9.706-39.32,0.001c-5.61-4.859-14.071-4.858-19.68-0.001c-3.131,2.711-7.869,2.372-10.579-0.759
		c-2.712-3.131-2.372-7.867,0.759-10.579c11.208-9.708,28.112-9.71,39.32,0c5.609,4.857,14.071,4.857,19.681-0.001
		c11.208-9.705,28.113-9.706,39.32,0.001c5.609,4.857,14.07,4.857,19.681-0.001c11.207-9.707,28.111-9.708,39.32,0.001
		c3.131,2.712,3.471,7.448,0.759,10.579c-2.712,3.13-7.448,3.473-10.58,0.759c-5.609-4.857-14.07-4.857-19.68,0
		C220.846,344.509,213.818,346.935,206.79,346.935z"/>
</g>
<g>
</g>
<g>
</g>
<g>
</g>
<g>
</g>
<g>
</g>
<g>
</g>
<g>
</g>
<g>
</g>
<g>
</g>
<g>
</g>
<g>
</g>
<g>
</g>
<g>
</g>
<g>
</g>
<g>
</g>
</svg>
